<?xml version="1.0" encoding="UTF-8" standalone="no"?>
<!DOCTYPE svg PUBLIC "-//W3C//DTD SVG 1.1//EN" "http://www.w3.org/Graphics/SVG/1.1/DTD/svg11.dtd">
<svg width="100%" height="100%" viewBox="0 0 174 54" version="1.1" xmlns="http://www.w3.org/2000/svg" xmlns:xlink="http://www.w3.org/1999/xlink" xml:space="preserve" xmlns:serif="http://www.serif.com/" style="fill-rule:evenodd;clip-rule:evenodd;stroke-linejoin:round;stroke-miterlimit:1.41421;">
    <g id="svg3398">
        <g transform="matrix(1,0,0,1,169.983,10.5434)">
            <path d="M0,32.615C0,32.615 -15.401,38.253 -47.706,36.571C-44.493,36.738 -62.821,36.239 -83.289,35.367C-103.53,34.504 -122.446,33.997 -118.875,34.178C-152.011,32.488 -166.58,38.177 -166.58,38.177L-166.581,-0.324C-166.581,-0.324 -147.135,-5.959 -116.731,-4.281C-115.653,-4.22 -109.65,-4.115 -101.619,-3.856C-96.128,-3.682 -89.693,-3.431 -83.236,-3.075C-67.33,-2.199 -50.987,-1.726 -49.747,-1.659C-18.555,0.031 0,-5.887 0,-5.887L0,32.615ZM-1.034,-9.128C-1.213,-9.07 -19.339,-3.415 -49.563,-5.055C-49.836,-5.07 -50.825,-5.104 -52.371,-5.157C-57.825,-5.345 -70.599,-5.785 -83.049,-6.471C-88.709,-6.783 -94.921,-7.048 -101.511,-7.256C-106.073,-7.403 -109.982,-7.501 -112.709,-7.569C-114.732,-7.619 -116.084,-7.652 -116.543,-7.677C-147.173,-9.367 -166.711,-3.827 -167.528,-3.591L-169.983,-2.879L-169.981,43.158L-165.342,41.347C-165.203,41.292 -151.083,35.941 -119.048,37.576L-119.046,37.543C-117.042,37.552 -100.484,38.038 -83.433,38.766C-72.507,39.231 -63.023,39.555 -58.343,39.706C-55.021,39.814 -52.29,39.895 -50.391,39.945C-49.496,39.968 -48.651,39.99 -47.882,39.955L-47.883,39.969L-47.882,39.969L-47.675,39.981L-47.675,39.98C-15.194,41.634 0.515,36.048 1.169,35.81L3.401,34.992L3.401,-10.543L-1.034,-9.128Z" style="fill:white;fill-rule:nonzero;"/>
        </g>
        <g transform="matrix(1,0,0,1,152.823,32.1168)">
            <path d="M0,-9.932C1.978,-8.849 3.014,-8.245 5.035,-7.017C8.048,-5.146 9.673,-3.4 9.749,0.013C9.82,3.428 7.775,8.59 0.899,9.604C-5.978,10.618 -9.493,7.023 -9.493,7.023C-8.681,5.07 -7.902,3.191 -7.089,1.205C-6.765,1.501 -4.422,4.61 -0.556,4.57C1.699,4.34 2.931,3.348 2.935,1.733C2.889,0.526 1.342,-0.278 1.342,-0.278C1.335,-0.278 -2.668,-2.663 -4.714,-3.835C-6.527,-4.98 -8.314,-6.073 -8.451,-9.216C-8.33,-13.097 -6.006,-17.732 -0.676,-19.53C3.124,-20.55 5.844,-20.101 7.988,-18.267C8.154,-18.119 8.484,-17.826 8.484,-17.826L6.638,-11.565C6.638,-11.565 6.467,-12.147 5.445,-13.116C4.677,-13.845 3.283,-15.032 1.271,-14.726C-0.578,-14.4 -1.402,-13.245 -1.443,-12.076C-1.462,-10.849 -1.113,-10.641 0,-9.932" style="fill:white;fill-rule:nonzero;"/>
        </g>
        <g transform="matrix(1,0,0,1,20.6143,31.7216)">
            <path d="M0,-10.322C-1.32,-7.133 -3.558,-1.467 -3.558,-1.467L2.471,-2.218C2.471,-2.218 0.888,-7.489 0,-10.322M13.564,6.54C10.228,6.674 9.114,6.733 5.727,7.001C5.204,5.658 3.658,1.793 3.658,1.793L-5.001,2.829C-5.001,2.829 -6.422,6.446 -6.979,7.724C-9.056,8.184 -11.316,8.488 -13.395,8.897C-9.177,-0.577 -1.535,-18.706 -1.535,-18.706L3.475,-19.219C3.475,-19.219 10.211,-2.497 13.564,6.54" style="fill:white;fill-rule:nonzero;"/>
        </g>
        <g transform="matrix(1,0,0,1,59.1367,12.3216)">
            <path d="M0,26.412L-5.979,26.214C-5.979,26.214 -14.041,16.207 -18.165,11.334C-18.165,16.142 -18.164,26.072 -18.164,26.072C-18.164,26.072 -21.691,25.921 -23.492,25.948C-23.498,16.538 -23.498,8.257 -23.502,0C-21.773,0.038 -20.117,0.129 -18.384,0.152C-13.933,5.082 -9.676,9.963 -5.224,15.279C-5.231,10.019 -5.24,5.149 -5.249,0.273C-3.474,0.293 -0.005,0.513 -0.005,0.513L0,26.412" style="fill:white;fill-rule:nonzero;"/>
        </g>
        <g transform="matrix(1,0,0,1,77.2896,18.6274)">
            <path d="M0,14.761C1.891,13.207 1.943,11.401 2.108,8.868C2.317,4.181 -0.191,-0.649 -4.499,-1.098C-5.055,-1.147 -5.588,-1.192 -6.146,-1.24C-6.146,-1.24 -6.141,15.618 -6.141,15.621C-5.372,15.647 -2.016,16.424 0,14.761M9.571,9.15C9.503,12.484 8.398,15.207 6.275,17.324C3.751,19.735 0.182,20.989 -4.105,20.702C-6.899,20.496 -13.381,20.341 -13.385,20.341C-13.383,10.969 -13.381,2.23 -13.38,-6.228C-13.38,-6.228 -7.239,-6.078 -4.292,-5.814C4.435,-4.891 9.659,0.686 9.571,9.15" style="fill:white;fill-rule:nonzero;"/>
        </g>
        <g transform="matrix(1,0,0,1,103.792,33.6344)">
            <path d="M0,-11.767C-0.163,-13.95 -1.819,-15.39 -4.617,-15.563C-5.051,-15.574 -5.75,-15.606 -5.75,-15.606C-5.748,-12.945 -5.775,-10.413 -5.775,-7.765C-5.446,-7.775 -5.213,-7.739 -4.125,-7.805C-3.04,-7.871 -1.801,-8.329 -1.034,-9.135C-0.372,-9.848 -0.016,-10.753 0,-11.768M2.378,-4.292C2.696,-3.988 7.297,1.893 10.025,5.077C7.739,6.29 5.653,7.464 3.37,8.702C0.306,4.07 -2.626,-0.497 -5.687,-5.312C-5.697,-1.246 -5.702,2.63 -5.705,6.668C-8.14,6.549 -10.465,6.594 -12.897,6.473C-12.898,-2.682 -12.897,-11.391 -12.897,-20.469C-12.897,-20.469 -5.573,-20.293 -1.787,-20.038C3.221,-19.642 7.349,-16.548 7.053,-11.581C6.798,-7.295 4.085,-5.792 2.972,-5.23C2.353,-4.917 1.779,-4.737 1.779,-4.737C1.812,-4.694 2.061,-4.596 2.378,-4.292" style="fill:white;fill-rule:nonzero;"/>
        </g>
        <g transform="matrix(1,0,0,1,127.781,18.1113)">
            <path d="M0,19.551C-3.115,19.551 -5.643,15.175 -5.643,9.78C-5.643,4.38 -3.115,0.001 0,0.001C3.12,0.001 5.646,4.38 5.646,9.78C5.646,15.175 3.12,19.551 0,19.551M0,-4.708C-7.461,-4.708 -13.513,1.777 -13.513,9.78C-13.513,17.775 -7.461,24.259 0,24.259C7.469,24.259 13.522,17.775 13.522,9.78C13.522,1.777 7.469,-4.708 0,-4.708" style="fill:white;fill-rule:nonzero;"/>
        </g>
        <g transform="matrix(1,0,0,1,165.947,10.2758)">
            <path d="M0,-0.381C0.381,-0.381 0.998,-0.317 0.998,-0.822C0.998,-1.175 0.6,-1.225 0.271,-1.225L-0.53,-1.225L-0.53,-0.381L0,-0.381M1.275,1.174L0.879,1.174L0.102,-0.071L-0.53,-0.071L-0.53,1.174L-0.834,1.174L-0.834,-1.531L0.342,-1.531C1.058,-1.531 1.302,-1.264 1.302,-0.818C1.302,-0.285 0.936,-0.088 0.455,-0.071L1.275,1.174ZM2.249,-0.195C2.249,-1.397 1.29,-2.356 0.09,-2.356C-1.121,-2.356 -2.085,-1.395 -2.085,-0.191C-2.085,1.023 -1.121,1.983 0.09,1.983C1.29,1.983 2.249,1.023 2.249,-0.195M-2.393,-0.195C-2.393,-1.562 -1.283,-2.666 0.09,-2.666C1.449,-2.666 2.558,-1.562 2.558,-0.198C2.558,1.171 1.449,2.285 0.09,2.285C-1.283,2.285 -2.393,1.171 -2.393,-0.195" style="fill:white;fill-rule:nonzero;"/>
        </g>
    </g>
</svg>
