<?xml version="1.0" encoding="utf-8"?>
<!-- Generator: Adobe Illustrator 18.1.1, SVG Export Plug-In . SVG Version: 6.00 Build 0)  -->
<svg version="1.1" id="Calque_1" xmlns="http://www.w3.org/2000/svg" xmlns:xlink="http://www.w3.org/1999/xlink" x="0px" y="0px"
	 viewBox="0 0 672.3 273.3" enable-background="new 0 0 672.3 273.3" xml:space="preserve">
<g>
	<path fill-rule="evenodd" clip-rule="evenodd" fill="#FFFFFF" d="M669,94.6c0.9,0,1.7,0.4,2.4,1c0.6,0.6,1,1.5,1,2.4v78.6
		c0,0.9-0.4,1.7-1,2.4c-0.6,0.6-1.5,1-2.4,1H567.7c-0.9,0-1.7-0.4-2.4-1c-0.6-0.6-1-1.5-1-2.4V98c0-0.9,0.4-1.7,1-2.4
		c0.6-0.6,1.5-1,2.4-1H669L669,94.6z M552.9,94.5H450.3c-0.9,0-1.7,0.4-2.4,1c-0.6,0.6-1,1.5-1,2.4V109c0,0.9,0.4,1.7,1,2.4
		c0.6,0.6,1.5,1,2.4,1h60.4l-63.1,63.9c-0.4,0.4-0.6,1-0.6,1.6c0,0.6,0.3,1.1,0.7,1.5c0.4,0.4,1,0.6,1.5,0.6h102.6
		c0.9,0,1.7-0.4,2.4-1c0.6-0.6,1-1.5,1-2.4v-11.1c0-0.9-0.4-1.7-1-2.4c-0.6-0.6-1.5-1-2.4-1h-60.4l63.1-63.9c0.4-0.4,0.6-1,0.6-1.6
		c0-0.6-0.3-1.1-0.7-1.5C554,94.8,553.5,94.5,552.9,94.5L552.9,94.5z M647,112.4h-57.3c-0.6,0-1.2,0.2-1.6,0.7
		c-0.4,0.4-0.7,1-0.7,1.6v45.2c0,0.6,0.2,1.2,0.7,1.6c0.4,0.4,1,0.7,1.6,0.7H647c0.6,0,1.2-0.2,1.6-0.7c0.4-0.4,0.7-1,0.7-1.6v-45.2
		c0-0.6-0.2-1.2-0.7-1.6C648.2,112.6,647.6,112.4,647,112.4L647,112.4z"/>
	<path fill-rule="evenodd" clip-rule="evenodd" fill="#FFFFFF" d="M414,98c0-0.9,0.4-1.7,1-2.4c0.6-0.6,1.5-1,2.4-1h16.4
		c0.9,0,1.7,0.4,2.4,1c0.6,0.6,1,1.5,1,2.4v78.6c0,0.9-0.4,1.7-1,2.4c-0.6,0.6-1.5,1-2.4,1h-16.4c-0.9,0-1.7-0.4-2.4-1
		c-0.6-0.6-1-1.5-1-2.4V98L414,98z"/>
	<path fill-rule="evenodd" clip-rule="evenodd" fill="#FFFFFF" d="M319.2,158.6v-12.5h81.5c0.9,0,1.7-0.4,2.4-1c0.6-0.6,1-1.5,1-2.4
		v-11.1c0-0.9-0.4-1.7-1-2.4c-0.6-0.6-1.5-1-2.4-1h-81.5v-10.9l0-2.7c0-0.6,0.2-1.2,0.6-1.6c0.4-0.4,1-0.7,1.6-0.7l2.5,0h76.8
		c0.9,0,1.7-0.4,2.4-1c0.6-0.6,1-1.5,1-2.4V98c0-0.9-0.4-1.7-1-2.4c-0.6-0.6-1.5-1-2.4-1H299.4c-0.9,0-1.7,0.4-2.4,1
		c-0.6,0.6-1,1.5-1,2.4v78.6c0,0.9,0.4,1.7,1,2.4c0.6,0.6,1.5,1,2.4,1h101.3c0.9,0,1.7-0.4,2.4-1c0.6-0.6,1-1.5,1-2.4v-11.1
		c0-0.9-0.4-1.7-1-2.4c-0.6-0.6-1.5-1-2.4-1h-77l-2.3-0.1c-0.6,0-1.2-0.2-1.6-0.6c-0.4-0.4-0.7-1-0.7-1.6L319.2,158.6L319.2,158.6z"
		/>
	<polygon fill-rule="evenodd" clip-rule="evenodd" fill="#FFFFFF" points="20.2,123.8 0,144 116.6,260.6 136.7,240.4 20.2,123.8 	
		"/>
	<polygon fill-rule="evenodd" clip-rule="evenodd" fill="#FFFFFF" points="129.3,273.3 116.6,260.6 260.5,116.6 273.3,129.4 
		273.3,149.9 252.7,149.9 252.7,170.5 232.1,170.5 232.1,191.1 211.6,191.1 211.6,211.6 191,211.6 191,232.2 170.5,232.2 
		170.5,252.7 149.9,252.7 149.9,273.3 129.3,273.3 	"/>
	<path fill-rule="evenodd" clip-rule="evenodd" fill="#FFFFFF" d="M168.4,53.3l14.4-14.4l14.4,14.4l-14.4,14.4l14.4,14.4l14.4-14.4
		L226,82.1l-14.4,14.4l14.4,14.4l14.4-14.4l14.4,14.4l-118,118L25.9,118.1c-0.3-3.1,0.3-6.2,1.7-9c1.4-2.8,3.5-5.2,6.1-6.9
		c2.6-1.7,5.6-2.7,8.8-2.8c4.3-0.2,8.4-2,11.5-5.1c3.1-3.1,4.9-7.2,5.1-11.5c0.2-4.3,2-8.4,5.1-11.5c3.1-3.1,7.2-4.9,11.5-5.1
		c4.3-0.2,8.4-2,11.5-5c3.1-3.1,4.9-7.2,5.1-11.5c0.2-4.3,2-8.4,5.1-11.5c3.1-3.1,7.2-4.9,11.5-5.1c4.3-0.2,8.4-2,11.5-5
		c3.1-3.1,4.9-7.2,5.1-11.5c0.1-3.1,1.1-6.1,2.8-8.8c1.7-2.6,4.1-4.7,6.9-6.1c2.8-1.4,5.9-1.9,9-1.7l24.5,24.5l-14.4,14.4
		L168.4,53.3L154,67.7l-14.4-14.4l-14.4,14.4l14.4,14.4l-14.4,14.4l-14.4-14.4L96.4,96.6l14.4,14.4l14.4-14.4l14.4,14.4l-14.4,14.4
		l14.4,14.4l14.4-14.4l14.4,14.4l-14.4,14.4l14.4,14.4l14.4-14.4l-14.4-14.4l14.4-14.4l14.4,14.4l14.4-14.4l-14.4-14.4l-14.4,14.4
		l-14.4-14.4L154,125.3l-14.4-14.4L154,96.5l14.4,14.4l14.4-14.4l-14.4-14.4L154,96.5l-14.4-14.4L154,67.7l43.2,43.2l14.4-14.4
		l-14.4-14.4l-14.4,14.4l-14.4-14.4l14.4-14.4L168.4,53.3L168.4,53.3z"/>
</g>
</svg>
