<?xml version="1.0" standalone="no"?>
<!DOCTYPE svg PUBLIC "-//W3C//DTD SVG 20010904//EN"
 "http://www.w3.org/TR/2001/REC-SVG-20010904/DTD/svg10.dtd">
<svg version="1.0" xmlns="http://www.w3.org/2000/svg"
 width="400.000000pt" height="400.000000pt" viewBox="0 0 400.000000 400.000000"
 preserveAspectRatio="xMidYMid meet">
<metadata>
Created by potrace 1.11, written by Peter Selinger 2001-2013
</metadata>
<g transform="translate(0.000000,400.000000) scale(0.100000,-0.100000)"
fill="#000000" stroke="none">
<path d="M0 2000 l0 -2000 2000 0 2000 0 0 2000 0 2000 -2000 0 -2000 0 0
-2000z m1622 728 l3 -653 335 -3 336 -2 74 -76 75 -75 -77 -75 -77 -74 -486 0
-485 0 0 805 0 805 150 0 150 0 2 -652z m857 378 c240 -240 262 -265 250 -282
-7 -10 -55 -59 -106 -109 l-93 -89 -160 159 -160 160 -52 -53 -53 -52 468
-468 468 -468 -421 -418 c-231 -229 -425 -416 -430 -414 -9 3 -610 599 -610
605 0 2 93 3 207 3 l208 0 97 -97 98 -98 210 210 210 210 -467 467 -468 468
265 265 c146 146 267 265 270 265 3 0 124 -119 269 -264z m-979 -2258 c0 -26
-17 -37 -60 -40 -33 -2 -46 -8 -48 -20 -3 -15 4 -18 38 -18 37 0 41 -2 38 -22
-2 -19 -10 -24 -45 -26 -35 -3 -43 -7 -43 -23 0 -16 7 -19 45 -19 45 0 50 -5
39 -34 -5 -13 -22 -16 -81 -16 -66 0 -74 2 -69 18 3 9 10 46 16 82 5 36 13 80
16 98 l5 32 74 0 c54 0 75 -4 75 -12z m166 -2 c26 -20 7 -39 -43 -40 -46 -1
-52 -26 -10 -37 64 -17 76 -62 28 -110 -24 -23 -38 -29 -74 -29 -50 0 -77 20
-58 44 8 9 25 12 55 9 34 -4 44 -2 49 11 7 17 3 20 -46 30 -40 9 -53 45 -32
85 24 48 90 67 131 37z m202 -2 c50 -35 2 -134 -66 -134 -32 0 -42 -14 -42
-56 0 -20 -5 -24 -31 -24 -28 0 -30 2 -25 28 3 15 10 56 16 92 21 120 14 110
73 110 31 0 62 -6 75 -16z m203 -5 c18 -18 20 -28 14 -78 -8 -64 -27 -106 -54
-121 -32 -17 -79 -12 -102 11 -39 39 -12 166 40 194 38 21 78 18 102 -6z m209
1 c27 -27 25 -66 -3 -94 -16 -16 -21 -29 -17 -42 4 -11 10 -31 14 -46 6 -26 4
-28 -23 -28 -25 0 -31 5 -41 38 -19 56 -27 59 -37 11 -7 -38 -12 -44 -37 -47
-26 -3 -28 -1 -22 25 3 15 10 57 16 93 19 118 14 110 75 110 42 0 60 -5 75
-20z m226 4 c-3 -9 -6 -19 -6 -24 0 -5 -12 -10 -27 -12 -27 -3 -29 -7 -43 -88
-14 -82 -16 -85 -43 -88 -24 -3 -28 0 -24 15 3 10 8 41 12 68 3 28 9 60 12 73
4 18 1 22 -21 22 -19 0 -26 5 -26 18 0 29 8 32 93 32 68 0 78 -2 73 -16z m164
1 c19 -22 0 -38 -47 -39 -44 -1 -55 -29 -13 -34 32 -5 60 -30 60 -53 0 -31
-21 -66 -47 -78 -35 -16 -98 -14 -113 4 -20 24 2 39 54 36 32 -1 45 2 50 14 6
16 2 19 -47 29 -40 9 -53 45 -32 85 9 18 26 36 38 41 35 14 83 11 97 -5z"/>
<path d="M1787 803 c-4 -3 -7 -15 -7 -25 0 -29 44 -20 48 10 3 16 -2 22 -16
22 -10 0 -22 -3 -25 -7z"/>
<path d="M1981 787 c-9 -22 -14 -67 -12 -95 1 -8 10 -12 23 -10 24 3 35 30 37
91 1 31 -2 37 -19 37 -12 0 -24 -9 -29 -23z"/>
<path d="M2190 784 c0 -21 4 -25 23 -22 14 2 23 11 25 26 3 18 -1 22 -22 22
-21 0 -26 -5 -26 -26z"/>
</g>
</svg>
