<svg xmlns="http://www.w3.org/2000/svg" viewBox="0 0 283.46 167.99">
  <defs>
    <style>
      .a {
        fill: #fff;
      }
    </style>
  </defs>
  <title>barriere</title>
  <g>
    <g>
      <path class="a" d="M119.65,66.66h-.35c0,10.68-8,18.71-18.55,18.72v.36c10.58,0,18.52,7.66,18.53,18.34h.35c0-10.68,8-18.33,18.54-18.34v-.36c-10.57,0-18.51-8-18.52-18.72"/>
      <path class="a" d="M172,52.37a21.37,21.37,0,0,0-5.92-6.63A29,29,0,0,0,158,41.55a37.85,37.85,0,0,0-8.78-1.85v-.24a30.7,30.7,0,0,0,8-2,24.29,24.29,0,0,0,6.75-4.07,19.26,19.26,0,0,0,4.67-5.86,15.67,15.67,0,0,0,1.73-7.29,20.38,20.38,0,0,0-1.19-6.4,16.23,16.23,0,0,0-4.43-6.57,25.88,25.88,0,0,0-8.84-5.15A41.82,41.82,0,0,0,141.53,0L119.29.06V55.41h.36a14.81,14.81,0,0,1,3.06-9.24,16.4,16.4,0,0,1,11.88-5.52h9.8s7.59.2,11.91,4.38c8.39,8.15,6.61,22.46,4.47,28s-6,12.4-15.71,12.4v.36a37.62,37.62,0,0,0,10.4-1.27A29.41,29.41,0,0,0,166.15,79a20.76,20.76,0,0,0,6.1-7.71,23.71,23.71,0,0,0,2-9.87A18,18,0,0,0,172,52.37M142.24,39h-11V1.67h8.13a33.6,33.6,0,0,1,6.27.6,21.63,21.63,0,0,1,6.26,2.44c4.8,2.73,7.7,8.63,7.7,15.54,0,5.42-1.07,9.41-5.56,14.33a12,12,0,0,1-5.71,3.56,20.87,20.87,0,0,1-6.1.84"/>
    </g>
    <g>
      <path class="a" d="M0,133.65H12.6c7.48,0,11.34,3.69,11.34,9.8a9.12,9.12,0,0,1-2.81,6.82,8,8,0,0,1,6.05,7.82c0,5.5-3.35,9.9-11.88,9.9H0Zm5.72,5.56v9H16a5.58,5.58,0,0,0,2.2-4.52c0-4-3.08-4.51-5.94-4.51Zm0,14.47v8.75h9c4.9,0,6.72-1.7,6.72-4.34,0-3.42-2.7-4.41-7.27-4.41Z"/>
      <path class="a" d="M51.67,132.83h.66L69.93,168H63.39l-3-6.27H43.52L40.61,168H34.06ZM46,156.43H57.94L52,143.78Z"/>
      <path class="a" d="M92.71,156.87H84.46V168H78.73V133.65H91.28c9.13,0,13.48,4.62,13.48,11.61,0,6-3.19,9-6.11,10.62L108.78,168h-7.21Zm2.48-5.55a6.77,6.77,0,0,0,3.63-6.06c0-4.34-2.48-6-7.6-6H84.46v12.11Z"/>
      <path class="a" d="M133.21,156.87H125V168h-5.72V133.65h12.55c9.13,0,13.47,4.62,13.47,11.61,0,6-3.19,9-6.1,10.62L149.27,168h-7.21Zm2.47-5.55a6.75,6.75,0,0,0,3.63-6.06c0-4.34-2.47-6-7.59-6H125v12.11Z"/>
      <rect class="a" x="158.9" y="133.65" width="5.72" height="34.34"/>
      <polygon class="a" points="204.35 167.99 179.47 167.99 179.47 133.65 185.2 133.65 190.09 133.65 187.4 129.31 192.96 129.31 195.04 133.65 204.35 133.65 204.35 139.21 185.2 139.21 185.2 147.69 203.79 147.69 203.79 153.24 185.2 153.24 185.2 162.43 204.35 162.43 204.35 167.99"/>
      <path class="a" d="M232.07,156.87h-8.25V168H218.1V133.65h12.54c9.14,0,13.49,4.62,13.49,11.61A11.3,11.3,0,0,1,238,155.88L248.14,168h-7.21Zm2.48-5.55a6.75,6.75,0,0,0,3.63-6.06c0-4.34-2.47-6-7.59-6h-6.77v12.11Z"/>
      <polygon class="a" points="283.46 167.99 258.59 167.99 258.59 133.65 264.31 133.65 283.46 133.65 283.46 139.21 264.31 139.21 264.31 147.69 282.91 147.69 282.91 153.24 264.31 153.24 264.31 162.43 283.46 162.43 283.46 167.99"/>
    </g>
  </g>
</svg>
