<?xml version="1.0" encoding="utf-8"?>
<!-- Generator: Adobe Illustrator 18.1.1, SVG Export Plug-In . SVG Version: 6.00 Build 0)  -->
<svg version="1.1" id="Calque_1" xmlns="http://www.w3.org/2000/svg" xmlns:xlink="http://www.w3.org/1999/xlink" x="0px" y="0px"
	 viewBox="0 0 814.2 173.2" enable-background="new 0 0 814.2 173.2" xml:space="preserve">
<path fill="#FFFFFF" d="M340,160.8c0-5.3,0-10.6,0.1-15.9c0-3.7-0.4-3.3,3.2-3.3c14.4,0,28.8,0,43.1,0c3.2,0,5.9-1.1,8-3.5
	c1.5-1.6,2.3-3.5,2.2-5.7c0-0.5,0-1.1,0-1.6c0-1.4-0.1-1.4-1.3-1.5c-0.7,0-1.5,0-2.2,0c-7.4,0-14.8,0-22.3,0c-3.3,0-6.6-0.3-9.8-0.9
	c-4.2-0.8-8-2.5-11.3-5.3c-6.7-5.6-10.5-12.6-10.9-21.3c-0.1-1.3-0.1-2.6-0.1-3.8c0-17,0-34.1,0-51.1c0-3.4-0.1-3,2.9-3
	c5.9,0,11.7,0,17.6,0c0.5,0,1.1,0,1.6,0c1,0,1.2,0.2,1.2,1.3c0,0.7,0,1.5,0,2.2c0,16.4,0,32.8,0,49.2c0,1.5,0.1,2.9,0.3,4.4
	c0.9,5.7,4.6,8.6,10,9.3c1.2,0.2,2.4,0.2,3.6,0.2c6.1,0,12.3,0,18.4,0c0.5,0,1.1,0,1.6-0.1c0.4,0,0.6-0.3,0.7-0.7c0-0.8,0-1.6,0-2.5
	c0-19.8,0-39.6,0-59.3c0-0.5,0-1.1,0-1.6c0-2.5,0-2.4,2.4-2.4c6.2,0,12.5,0,18.7,0c0.5,0,1.1,0,1.6,0.1c0.4,0,0.7,0.3,0.7,0.7
	c0,0.6,0.1,1.3,0.1,1.9c0,28.7,0,57.3,0,86c0,7.5-2.7,13.7-8,18.9c-4.1,4-8.8,7.1-14.5,8.4c-0.7,0.2-1.7,0.1-2.2,1
	C377,160.8,358.5,160.8,340,160.8z"/>
<path fill="#FFFFFF" d="M814.2,129.4c-1-0.3-2-0.2-3-0.2c-19,0-38.1,0-57.1,0c-4,0-7.9-0.4-11.5-2c-9.4-4-14.5-11.1-15.1-21.3
	c-0.3-4.6,0.6-9.1,2.6-13.3c3.8-8,10.1-12.5,19-13.3c1.3-0.1,2.6-0.1,3.8-0.1c11.8,0,23.6,0,35.4,0c3.3,0,3.1,0.2,3.1-3.1
	c0-0.5,0-0.9,0-1.4c0.1-6.4-5-11.3-11.1-11.8c-1.8-0.1-3.7-0.2-5.5-0.2c-12.8,0-25.6,0-38.5,0c-3.4,0-3.1,0.3-3.1-3.1
	c0-4.3,0-8.6,0-12.9c0-0.6,0-1.3,0-1.9c0-0.6,0.3-1,1-1.1c0.5,0,0.9,0,1.4,0c15.4,0,30.8-0.1,46.1,0c5.4,0,10.7,1.1,15.8,3
	c5.6,2.1,9.8,6,12.7,11.2c1.7,3,3,6.2,3.4,9.8c0,0.2,0.3,0.4,0.5,0.6C814.2,88.8,814.2,109.1,814.2,129.4z M775.5,110.5
	c4.8,0,9.5,0,14.3,0c1.5,0,1.7-0.2,1.7-1.7c0-3.9,0-7.9,0-11.8c0-0.3,0-0.6,0-0.8c-0.1-0.4-0.3-0.7-0.7-0.7c-0.5,0-1.1,0-1.6,0
	c-8.9,0-17.8,0-26.6,0c-0.5,0-1.1,0-1.6,0c-3.4,0.4-6.1,1.9-7.9,4.9c-1.5,2.4-1.4,6.6,2.3,8.5c2.2,1.1,4.4,1.7,6.8,1.7
	C766.5,110.5,771,110.5,775.5,110.5z"/>
<path fill="#FFFFFF" d="M208.1,65.1c0.3,0,0.6,0,0.7-0.3c0.2-0.7,0.3-1.4,0.5-2.1c2.2-9.3,7.7-15.6,17.1-18.2c2-0.6,4.1-0.8,6.2-0.8
	c17.5,0,35,0,52.5,0c0.5,0,0.9,0,1.4,0c0.6,0,0.8,0.4,0.9,0.9c0,0.5,0,0.9,0,1.4c0,3.9,0,7.9,0,11.8c0,0.4,0,0.7,0,1.1
	c0,0.6-0.3,1-1,1c-0.8,0-1.6,0-2.5,0c-14.2,0-28.4,0-42.6,0c-0.6,0-1.3,0-1.9,0c-2.5-0.2-4.3,0.9-5.6,2.8
	c-4.8,6.4-0.5,13.4,4.2,14.7c1.3,0.3,2.5,0.4,3.8,0.4c8.2,0,16.5,0,24.7,0c2.7,0,5.3,0.2,7.9,1c9.5,2.7,15.6,8.8,17.9,18.5
	c0.9,4,1,8,0.1,12c-2.4,10.5-9.2,16.8-19.5,19.4c-1.7,0.5-3.6,0.5-5.5,0.5c-18,0-36.1,0-54.1,0c-0.4,0-0.7,0-1.1,0
	c-1-0.1-1.2-0.3-1.3-1.4c0-4.2,0-8.4,0-12.6c0-0.9,0.2-1.1,1.1-1.2c0.7,0,1.5,0,2.2,0c14.8,0,29.7,0,44.5,0c2.1,0,4-0.5,5.8-1.4
	c2.7-1.4,4.3-3.6,4.8-6.6c0.4-2.7-0.1-5.3-1.7-7.6c-0.9-1.3-2.1-2.2-3.6-2.8c-3.1-1.3-6.3-1.9-9.6-1.9c-7,0-13.9-0.2-20.9,0
	c-10.8,0.4-17.7-5.2-22.4-14.2c-1-1.9-1.6-3.9-1.9-6c-0.1-0.6-0.1-1.3-1-1.4C208.1,69.9,208.1,67.5,208.1,65.1z"/>
<path fill="#FFFFFF" d="M573.7,42.2c5.5-0.1,12.3,0.5,18.9,2.6c14.5,4.7,23.9,14.5,28,29.1c2,6.9,2.4,14.1,1.7,21.2
	c-0.5,5.1-2,10-4.5,14.6c-3,5.6-7.4,10-12.9,13.1c-5.1,2.9-10.5,4.7-16.2,5.9c-7,1.5-14.1,2.3-21.3,2.1c-9.2-0.3-17.9-2.5-25.8-7.5
	c-7.7-4.9-12.9-11.8-15.9-20.4c-2.9-8.2-3.6-16.6-2.4-25.2c1.3-9.8,6-17.7,13.6-24c5.8-4.8,12.5-7.8,19.8-9.6
	C561.9,43,567.1,42.5,573.7,42.2z M548.7,85.6c0,1.3,0,2.1,0,2.8c0,5.3,1.5,10.1,4.1,14.6c3,5,7.4,8.3,13.1,9.8
	c3.7,1,7.5,1.4,11.4,0.8c4.4-0.7,8.2-2.4,11.4-5.5c2.7-2.6,4.6-5.7,5.8-9.2c2.3-6.5,2.9-13.2,1.6-20c-1.5-7.5-5.7-13-12.7-16.2
	c-5.6-2.6-11.5-3.1-17.4-1.6c-8.2,2.1-13.4,7.5-16,15.4C548.9,79.7,548.6,82.9,548.7,85.6z"/>
<path fill="#FFFFFF" d="M431.7,86.6c0-13.3,0-26.6,0-39.8c0-3.3-0.2-3,2.9-3c16.2,0,32.4,0,48.6,0c3.9,0,7.8,0.4,11.7,1.5
	c4.1,1.2,7.5,3.4,10.3,6.5c4.5,5.1,6.9,11.1,7.3,18c0.1,1.1,0,2.2,0,3.3c0,17.7,0,35.3,0,53c0,0.6,0,1.3,0,1.9
	c0,0.9-0.2,1.2-1.1,1.2c-0.3,0-0.5,0-0.8,0c-6.5,0-13,0-19.5,0c-0.4,0-0.7,0-1.1,0c-0.7-0.1-1-0.4-1-1.1c0-0.7,0-1.5,0-2.2
	c0-16.8,0-33.5,0-50.3c0-0.4,0-0.7,0-1.1c0.8-7.2-6.1-12-11.5-12c-0.3,0-0.5,0-0.8,0c-6.4,0-12.8,0-19.2,0c-0.5,0-0.9,0-1.4,0
	c-0.5,0-0.9,0.4-0.9,0.8c-0.1,0.8-0.1,1.6-0.1,2.5c0,20,0,39.9,0,59.9c0,0.8,0,1.6,0,2.5c0,0.6-0.4,1-1,1c-0.4,0-0.7,0-1.1,0
	c-6.3,0-12.6,0-19,0c-0.5,0-0.9,0-1.4,0c-0.5,0-0.9-0.3-0.9-0.8c0-0.8,0-1.6,0-2.5C431.7,112.8,431.7,99.7,431.7,86.6z"/>
<path fill="#FFFFFF" d="M675.5,102.5c0.9-2.1,1.7-4.1,2.5-6.1c6.7-16.7,13.4-33.4,20.2-50.1c1.1-2.7,0.7-2.4,3.5-2.4
	c7.4,0,14.8,0,22.2,0c0.6,0,1.3,0,1.9,0c0.4,1-0.2,1.7-0.5,2.4c-5.8,13.3-11.6,26.6-17.5,40c-5.9,13.6-11.8,27.2-17.8,40.7
	c-1.2,2.6-0.8,2.3-3.6,2.3c-7.8,0-15.6,0-23.3,0c-0.5,0-1.1,0-1.6,0c-0.6,0-1-0.3-1.3-0.8c-0.3-0.6-0.5-1.2-0.7-1.8
	c-11.1-26.7-22.2-53.3-33.3-80c-0.3-0.7-0.6-1.4-0.8-2c-0.1-0.4,0.1-0.7,0.5-0.8c0.5,0,1.1,0,1.6,0c7.5,0,15,0,22.5,0
	c0.4,0,0.7,0,1.1,0c1-0.1,1.5,0.4,1.8,1.3c1.4,3.7,2.8,7.3,4.3,11c5.7,14.7,11.4,29.3,17.1,44C674.5,100.9,674.6,101.9,675.5,102.5z
	"/>
<path fill="#FFFFFF" d="M303.6,70.6c0-18.4,0-36.8,0-55.2c0-3.3-0.3-2.9,2.9-3c6,0,11.9,0,17.9,0c0.6,0,1.3,0,1.9,0.1
	c0.4,0,0.6,0.3,0.7,0.7c0,0.6,0.1,1.3,0.1,1.9c0,37.1,0,74.2,0,111.3c0,0.6,0,1.3,0,1.9c0,0.5-0.3,0.9-0.8,0.9c-0.5,0-0.9,0-1.4,0
	c-6.3,0-12.6,0-19,0c-0.5,0-0.9,0-1.4,0c-0.6,0-0.8-0.4-0.8-0.9c0-0.7,0-1.5,0-2.2C303.6,107.6,303.6,89.1,303.6,70.6z"/>
<path fill="#FFFFFF" d="M152.9,101.4c0,12.8,0,25.6,0,38.3c0,2.7-1,4.9-2.8,6.8c-0.6,0.6-1.2,1.1-1.9,1.5c-6,3.4-11.9,6.9-17.9,10.3
	c-7.8,4.5-15.6,9-23.4,13.5c-1.7,1-3.4,1.4-5.3,1.3c-1.4-0.1-2.8-0.4-4.1-1.1c-5.7-3.3-11.3-6.5-17-9.8c-0.5-0.3-1-0.6-1.3-1
	c-0.9-1-0.9-2.1,0-3.2c0.4-0.5,0.9-0.8,1.4-1.1c2.2-1.3,4.4-2.6,6.6-3.8c11.5-6.7,23-13.3,34.6-19.9c2.6-1.5,4-3.7,4.7-6.5
	c0.1-0.5,0.1-1,0.1-1.4c0-5.9,0.1-11.8,0-17.6c0-3.4-1.6-6-4.4-7.8c-3.3-2.1-6.7-4-10-6c-9.8-5.8-19.6-11.6-29.4-17.5
	C74.2,71.3,65.6,66.1,57,61c-0.5-0.3-1-0.6-1.5-0.9c-2-1.4-2-3.4,0-4.7c0.7-0.5,1.5-0.9,2.3-1.4c4.7-2.7,9.4-5.4,14.1-8.1
	c2.6-1.5,5.2-1.6,8-0.7c0.5,0.2,1,0.5,1.5,0.8c6.1,3.5,12.2,7,18.2,10.5c7.4,4.3,14.8,8.6,22.2,12.8c0.5,0.3,1.1,0.6,1.7,0.8
	c1.3,0.3,2.4-0.2,2.9-1.5c0.2-0.6,0.2-1.2,0.2-1.8c0-4.9,0-9.8,0-14.7c0-1.5,0-3,0-4.5c0-0.5,0.1-1.1,0.3-1.6
	c0.5-1.2,1.5-1.8,2.8-1.5c0.6,0.1,1.1,0.4,1.7,0.7c3.8,2.2,7.5,4.3,11.3,6.5c1.8,1,3.5,2,5.3,3c3.3,1.9,5,4.8,5,8.6
	C152.9,76.1,152.9,88.7,152.9,101.4z"/>
<path fill="#FFFFFF" d="M0,71.8c0-12.8,0-25.6,0-38.5c0-1.9,0.5-3.6,1.5-5.2c0.8-1.3,1.9-2.4,3.3-3.2c6.3-3.6,12.6-7.3,19-10.9
	C31,9.8,38.2,5.7,45.4,1.5c0.9-0.5,1.8-1,2.8-1.2c2.4-0.5,4.8-0.3,6.9,0.9c5.6,3.2,11.2,6.5,16.8,9.7c0.5,0.3,0.9,0.5,1.3,0.9
	c1,1.1,1,2.3,0,3.4c-0.4,0.5-0.9,0.8-1.5,1.1c-3.9,2.2-7.7,4.5-11.6,6.7c-9.8,5.6-19.5,11.3-29.3,16.9c-2.4,1.4-3.9,3.5-4.6,6.2
	c-0.2,0.6-0.2,1.1-0.2,1.7c-0.1,6.5-0.1,13-0.3,19.5c-0.1,3.2,2.1,6.7,4.7,8.2c5.5,3.1,10.9,6.3,16.3,9.4
	C59.2,92,71.6,99.1,84,106.3c4.4,2.5,8.8,5.1,13.2,7.6c0.5,0.3,0.9,0.5,1.3,0.9c1.3,1.1,1.3,2.6,0.1,3.8c-0.3,0.3-0.7,0.6-1.1,0.8
	c-5.4,3.1-10.7,6.2-16.1,9.3c-1.6,0.9-3.3,1.2-5.2,1.1c-1.6-0.1-3.1-0.6-4.5-1.4c-13.6-7.9-27.2-15.7-40.8-23.6
	c-0.6-0.3-1.2-0.7-1.9-0.8c-1.1-0.2-2,0.3-2.5,1.3c-0.2,0.5-0.4,1-0.4,1.5c0,0.4,0,0.7,0,1.1c0,5.8,0,11.6,0,17.4c0,0.4,0,0.8,0,1.2
	c0,0.5-0.2,1-0.4,1.4c-0.4,0.7-1,1.1-1.9,1.1c-0.5,0-1-0.1-1.4-0.3c-0.4-0.2-0.8-0.4-1.2-0.6c-5.5-3.2-11-6.4-16.5-9.5
	c-2.4-1.4-3.8-3.5-4.5-6.1c-0.1-0.5-0.1-1-0.2-1.4c0-0.5,0-1.1,0-1.6C0,96.8,0,84.3,0,71.8z"/>
</svg>
